<svg width="40" height="24" viewBox="0 0 40 24" fill="none" xmlns="http://www.w3.org/2000/svg">
    <rect width="40" height="24" rx="4" fill="#1A1F71"/>
    <path fill-rule="evenodd" clip-rule="evenodd" d="M15.3283 15.8284H13.1321L14.5617 8.17163H16.7579L15.3283 15.8284Z" fill="white"/>
    <path fill-rule="evenodd" clip-rule="evenodd" d="M22.717 8.38737C22.2946 8.21797 21.601 8.03125 20.7397 8.03125C18.7123 8.03125 17.2574 9.10674 17.2473 10.6227C17.2276 11.7507 18.2849 12.3795 19.0859 12.7597C19.9066 13.1496 20.1978 13.4046 20.1928 13.7571C20.185 14.2921 19.4988 14.5347 18.8619 14.5347C17.9959 14.5347 17.5314 14.4025 16.8327 14.1227L16.5513 13.9959L16.2451 15.6545C16.7416 15.8763 17.6508 16.0709 18.5947 16.0834C20.7446 16.0834 22.1697 15.0205 22.1847 13.4046C22.1921 12.4943 21.5379 11.7883 20.3193 11.2235C19.5826 10.8611 19.1305 10.6162 19.1305 10.2238C19.1305 9.88385 19.5429 9.52344 20.4378 9.52344C21.1712 9.51092 21.7165 9.67529 22.1343 9.84221L22.3265 9.92705L22.717 8.38737Z" fill="white"/>
    <path fill-rule="evenodd" clip-rule="evenodd" d="M25.9502 8.17163H27.6154L29.6825 15.8284H27.6847L27.3042 14.6355H24.4775L24.0274 15.8284H21.7969L24.9343 8.75034C25.1562 8.19163 25.5367 8.17163 25.9502 8.17163ZM27.8272 13.1471L26.9871 10.0897L26.0678 13.1471H27.8272Z" fill="white"/>
    <path fill-rule="evenodd" clip-rule="evenodd" d="M11.8235 8.17163L9.85645 13.5245L9.60234 12.4116C9.15475 11.0687 7.84512 9.60925 6.40039 8.84717L8.23475 15.8259H10.4532L13.8274 8.17163H11.8235Z" fill="white"/>
    <path fill-rule="evenodd" clip-rule="evenodd" d="M7.93555 8.17163H4.58388L4.54883 8.33351C7.09833 8.93222 8.77833 10.4417 9.60222 12.4116L8.92972 8.75034C8.77833 8.21909 8.39222 8.18659 7.93555 8.17163Z" fill="#FAA61A"/>
</svg>
