<?xml version="1.0" encoding="UTF-8"?>
<svg width="184" height="24" viewBox="0 0 184 24" fill="none" xmlns="http://www.w3.org/2000/svg">
  <path d="M18.39 0H5.61C2.51 0 0 2.51 0 5.61v12.78C0 21.49 2.51 24 5.61 24h12.78c3.1 0 5.61-2.51 5.61-5.61V5.61C24 2.51 21.49 0 18.39 0zM12 18.37c-3.52 0-6.37-2.85-6.37-6.37S8.48 5.63 12 5.63s6.37 2.85 6.37 6.37-2.85 6.37-6.37 6.37z" fill="currentColor"/>
  <path d="M40.39 0h52.22C95.71 0 98.22 2.51 98.22 5.61v12.78c0 3.1-2.51 5.61-5.61 5.61H40.39c-3.1 0-5.61-2.51-5.61-5.61V5.61C34.78 2.51 37.29 0 40.39 0z" fill="currentColor"/>
  <path d="M178.39 0h-52.22c-3.1 0-5.61 2.51-5.61 5.61v12.78c0 3.1 2.51 5.61 5.61 5.61h52.22c3.1 0 5.61-2.51 5.61-5.61V5.61c0-3.1-2.51-5.61-5.61-5.61z" fill="currentColor"/>
</svg>
