<?xml version="1.0" encoding="UTF-8"?>
<svg width="124" height="24" viewBox="0 0 124 24" fill="none" xmlns="http://www.w3.org/2000/svg">
  <path d="M12 0C5.37 0 0 5.37 0 12s5.37 12 12 12h100c6.63 0 12-5.37 12-12s-5.37-12-12-12H12zm0 6h100c3.31 0 6 2.69 6 6s-2.69 6-6 6H12c-3.31 0-6-2.69-6-6s2.69-6 6-6z" fill="currentColor"/>
  <path d="M38 9c-1.66 0-3 1.34-3 3s1.34 3 3 3 3-1.34 3-3-1.34-3-3-3zm24 0c-1.66 0-3 1.34-3 3s1.34 3 3 3 3-1.34 3-3-1.34-3-3-3zm24 0c-1.66 0-3 1.34-3 3s1.34 3 3 3 3-1.34 3-3-1.34-3-3-3z" fill="currentColor"/>
</svg>
