<?xml version="1.0" encoding="UTF-8"?>
<svg width="120" height="34" viewBox="0 0 120 34" fill="none" xmlns="http://www.w3.org/2000/svg">
  <path d="M107.62 16.99c-1.69 0-3.06 1.37-3.06 3.06 0 1.69 1.37 3.06 3.06 3.06 1.69 0 3.06-1.37 3.06-3.06 0-1.7-1.37-3.06-3.06-3.06m-7.3-6.12c1.69 0 3.06-1.37 3.06-3.06 0-1.69-1.37-3.06-3.06-3.06-1.69 0-3.06 1.37-3.06 3.06 0 1.69 1.37 3.06 3.06 3.06M36.81 7.75c-1.69 0-3.06 1.37-3.06 3.06 0 1.69 1.37 3.06 3.06 3.06 1.69 0 3.06-1.37 3.06-3.06 0-1.7-1.37-3.06-3.06-3.06" fill="currentColor"/>
  <path d="M118.79 14.93c-1.69 0-3.06 1.37-3.06 3.06 0 1.69 1.37 3.06 3.06 3.06 1.69 0 3.06-1.37 3.06-3.06 0-1.7-1.37-3.06-3.06-3.06m-96.24 0c-1.69 0-3.06 1.37-3.06 3.06 0 1.69 1.37 3.06 3.06 3.06 1.69 0 3.06-1.37 3.06-3.06 0-1.7-1.37-3.06-3.06-3.06" fill="currentColor"/>
</svg>
