<?xml version="1.0" encoding="UTF-8"?>
<svg width="98" height="24" viewBox="0 0 98 24" fill="none" xmlns="http://www.w3.org/2000/svg">
  <path d="M10.24 0C4.59 0 0 4.59 0 10.24v3.52C0 19.41 4.59 24 10.24 24h77.52C93.41 24 98 19.41 98 13.76v-3.52C98 4.59 93.41 0 87.76 0H10.24zm1.28 14.4c.71 0 1.28.57 1.28 1.28v2.56c0 .71-.57 1.28-1.28 1.28H8.96c-.71 0-1.28-.57-1.28-1.28v-2.56c0-.71.57-1.28 1.28-1.28h2.56zm19.2 0c.71 0 1.28.57 1.28 1.28v2.56c0 .71-.57 1.28-1.28 1.28h-2.56c-.71 0-1.28-.57-1.28-1.28v-2.56c0-.71.57-1.28 1.28-1.28h2.56zm19.2 0c.71 0 1.28.57 1.28 1.28v2.56c0 .71-.57 1.28-1.28 1.28h-2.56c-.71 0-1.28-.57-1.28-1.28v-2.56c0-.71.57-1.28 1.28-1.28h2.56z" fill="currentColor"/>
</svg>
