<?xml version="1.0" encoding="UTF-8"?>
<svg width="89" height="24" viewBox="0 0 89 24" fill="none" xmlns="http://www.w3.org/2000/svg">
  <path d="M88.2 11.24c0-5.66-4.59-10.24-10.24-10.24H11.04C5.39 1 .8 5.58.8 11.24c0 5.65 4.59 10.24 10.24 10.24h66.92c5.65 0 10.24-4.59 10.24-10.24zm-43.16 5.12c0 .71-.57 1.28-1.28 1.28h-7.68c-.71 0-1.28-.57-1.28-1.28v-10.24c0-.71.57-1.28 1.28-1.28h7.68c.71 0 1.28.57 1.28 1.28v10.24zm20.48 0c0 .71-.57 1.28-1.28 1.28h-7.68c-.71 0-1.28-.57-1.28-1.28v-10.24c0-.71.57-1.28 1.28-1.28h7.68c.71 0 1.28.57 1.28 1.28v10.24z" fill="currentColor"/>
</svg>
