<?xml version="1.0" encoding="UTF-8"?>
<svg width="800px" height="200px" viewBox="0 0 800 200" version="1.1" xmlns="http://www.w3.org/2000/svg" xmlns:xlink="http://www.w3.org/1999/xlink">
    <title>Payment Methods</title>
    <g id="Payment-Methods" stroke="none" stroke-width="1" fill="none" fill-rule="evenodd">
        <!-- Visa -->
        <g id="visa" transform="translate(20, 50)">
            <rect id="visa-bg" fill="#FFFFFF" x="0" y="0" width="120" height="80" rx="8"></rect>
            <path d="M45.5,55.3 L40.8,25.7 L50.2,25.7 L54.9,55.3 L45.5,55.3 Z M77.9,36.1 C75.6,35 72.2,33.8 68.1,33.8 C60.1,33.8 54.5,38 54.5,44.1 C54.4,48.6 58.4,51 61.4,52.5 C64.5,54 65.7,55 65.7,56.3 C65.6,58.3 63.2,59.2 61,59.2 C57.8,59.2 56.1,58.7 53.3,57.4 L52,56.7 L50.6,64.3 C53.3,65.6 58.1,66.7 63.1,66.8 C71.7,66.8 77.2,62.7 77.3,56.1 C77.3,52.5 75,49.8 70.2,47.5 C67.3,46 65.5,45 65.5,43.5 C65.5,42.2 67.1,40.8 70.3,40.8 C73,40.7 75,41.3 76.6,41.9 L77.5,42.3 L78.9,35 L77.9,36.1 Z M101.3,25.7 L93.9,25.7 C91.7,25.7 90,26.4 89.1,28.6 L76.3,55.3 L84.9,55.3 C84.9,55.3 86.4,51.4 86.7,50.6 C87.7,50.6 96.3,50.6 97.6,50.6 C97.8,51.6 98.7,55.3 98.7,55.3 L106.3,55.3 L101.3,25.7 Z M89.1,43.7 C89.8,41.9 92.5,35.1 92.5,35.1 C92.5,35.2 93.1,33.6 93.4,32.6 L93.9,35 C93.9,35 95.6,42.1 96,43.7 L89.1,43.7 Z M36.9,25.7 L20.7,55.4 L12,55.4 C12,55.4 28.7,26.5 29.3,25.1 C29.9,23.7 31.1,22.9 32.7,22.9 L36.9,25.7 Z" id="visa-logo" fill="#1434CB" fill-rule="nonzero"></path>
        </g>
        
        <!-- Mastercard -->
        <g id="mastercard" transform="translate(160, 50)">
            <rect id="mastercard-bg" fill="#FFFFFF" x="0" y="0" width="120" height="80" rx="8"></rect>
            <g id="mastercard-logo" transform="translate(20, 20)">
                <circle id="red-circle" fill="#EB001B" cx="40" cy="20" r="20"></circle>
                <circle id="yellow-circle" fill="#F79E1B" cx="60" cy="20" r="20"></circle>
                <path d="M50,10 C54.1,13.2 56.7,18.3 56.7,24 C56.7,29.7 54.1,34.8 50,38 C45.9,34.8 43.3,29.7 43.3,24 C43.3,18.3 45.9,13.2 50,10 Z" id="overlap" fill="#FF5F00"></path>
            </g>
        </g>
        
        <!-- Apple Pay -->
        <g id="apple-pay" transform="translate(300, 50)">
            <rect id="apple-pay-bg" fill="#000000" x="0" y="0" width="120" height="80" rx="8"></rect>
            <path d="M35.8,33.7 C34.2,35.6 31.7,37.2 29.2,37 C28.9,34.6 30,32.1 31.5,30.5 C33.1,28.6 35.8,27.1 38.1,27 C38.3,29.5 37.3,31.9 35.8,33.7 M38.1,37.4 C35.3,37.2 32.9,38.8 31.4,38.8 C29.9,38.8 27.8,37.5 25.7,37.5 C22.4,37.6 19.3,39.7 17.6,43 C14.2,49.5 16.8,59.1 20.1,64.5 C21.7,67.1 23.7,70 26.3,69.9 C28.7,69.8 29.6,68.3 32.5,68.3 C35.4,68.3 36.2,69.9 38.7,69.8 C41.3,69.7 43.1,67.1 44.7,64.5 C46.5,61.6 47.2,58.8 47.3,58.6 C47.2,58.5 42.1,56.6 42,50.7 C41.9,45.8 46,43.5 46.2,43.3 C44.1,40.3 40.9,39.9 39.6,39.8 C37.3,39.6 35.3,40.9 34,40.9 C32.8,40.9 31.1,39.8 29.1,39.8 M60.3,28.5 L60.3,69.5 L66.3,69.5 L66.3,55.9 L73.8,55.9 C80.6,55.9 85.3,51.3 85.3,44.7 C85.3,38.1 80.7,33.5 74,33.5 L60.3,33.5 L60.3,28.5 Z M66.3,38.5 L72.9,38.5 C77.2,38.5 79.2,40.9 79.2,44.7 C79.2,48.5 77.2,50.9 72.9,50.9 L66.3,50.9 L66.3,38.5 Z M96.7,69.7 C100.5,69.7 104,67.9 105.7,64.9 L105.9,64.9 L105.9,69.5 L111.5,69.5 L111.5,47.9 C111.5,42.5 107.5,38.9 100.9,38.9 C94.7,38.9 90.5,42.5 90.3,47.5 L95.8,47.5 C96.1,45.1 98,43.5 100.8,43.5 C104,43.5 105.9,45.2 105.9,48.3 L105.9,50.5 L99.3,50.9 C92.9,51.3 89.5,54.1 89.5,59 C89.5,64 93.1,69.7 96.7,69.7 Z M98.1,65.3 C95.3,65.3 93.3,62.9 93.3,59.9 C93.3,56.7 95.3,55.1 98.9,54.9 L105.9,54.5 L105.9,56.9 C105.9,61.7 102.5,65.3 98.1,65.3 Z" id="apple-pay-logo" fill="#FFFFFF" fill-rule="nonzero"></path>
        </g>
        
        <!-- PayPal -->
        <g id="paypal" transform="translate(440, 50)">
            <rect id="paypal-bg" fill="#FFFFFF" x="0" y="0" width="120" height="80" rx="8"></rect>
            <g id="paypal-logo" transform="translate(25, 20)" fill-rule="nonzero">
                <path d="M41.7,8.9 C41.7,13.6 38.1,17.8 32.5,17.8 L28.5,17.8 L26.5,30.8 L30.1,30.8 C30.7,30.8 31.2,30.4 31.3,29.8 L31.4,29.2 L32.5,22.6 L32.6,22 C32.7,21.4 33.2,21 33.8,21 L34.7,21 C39.3,21 42.9,18.4 43.7,13 C44,11.1 43.7,9.5 42.7,8.4 C42.4,8.6 42.1,8.7 41.7,8.9 Z" id="paypal-p1" fill="#003087"></path>
                <path d="M19.3,9.1 C19.4,8.5 19.9,8.1 20.5,8.1 L29.3,8.1 C30.5,8.1 31.6,8.2 32.5,8.4 C32.9,8.2 33.2,8.1 33.5,7.9 C34.5,7.5 35.7,7.3 37,7.3 L45.8,7.3 C46.4,7.3 46.9,7.7 47,8.3 L51,33.7 C51.1,34.3 50.6,34.7 50,34.7 L41.2,34.7 C40.6,34.7 40.1,34.3 40,33.7 L39.9,33.1 L38.8,26.5 L38.7,25.9 C38.6,25.3 38.1,24.9 37.5,24.9 L36.6,24.9 C32,24.9 28.4,22.3 27.6,16.9 C27.3,15 27.6,13.4 28.6,12.3 C28.3,12.5 28,12.6 27.6,12.8 C26.6,13.2 25.4,13.4 24.1,13.4 L15.3,13.4 C14.7,13.4 14.2,13.8 14.1,14.4 L10.1,39.8 C10,40.4 10.5,40.8 11.1,40.8 L19.9,40.8 C20.5,40.8 21,40.4 21.1,39.8 L23.1,26.8 L19.3,9.1 Z" id="paypal-p2" fill="#0070E0"></path>
            </g>
        </g>
        
        <!-- Google Pay -->
        <g id="google-pay" transform="translate(580, 50)">
            <rect id="google-pay-bg" fill="#FFFFFF" x="0" y="0" width="120" height="80" rx="8"></rect>
            <g id="google-pay-logo" transform="translate(20, 25)">
                <path d="M38.5,17.5 L38.5,28.9 L34.3,28.9 L34.3,5.1 L46.5,5.1 C48.9,5.1 50.9,5.9 52.4,7.5 C54,9.1 54.7,11.1 54.7,13.4 C54.7,15.8 54,17.8 52.4,19.3 C50.9,20.9 48.9,21.7 46.5,21.7 L38.5,21.7 L38.5,17.5 Z M38.5,9.3 L38.5,17.5 L46.6,17.5 C47.8,17.5 48.7,17.1 49.5,16.4 C50.2,15.6 50.6,14.6 50.6,13.4 C50.6,12.3 50.2,11.3 49.5,10.5 C48.8,9.7 47.8,9.3 46.6,9.3 L38.5,9.3 Z" id="google-g" fill="#5F6368"></path>
                <path d="M59.5,12.6 C62,12.6 64,13.3 65.4,14.7 C66.8,16.1 67.5,18 67.5,20.5 L67.5,28.9 L63.5,28.9 L63.5,26.5 L63.3,26.5 C61.9,28.5 60.1,29.5 57.8,29.5 C55.9,29.5 54.3,28.9 53.1,27.8 C51.9,26.7 51.3,25.3 51.3,23.6 C51.3,21.8 52,20.4 53.3,19.3 C54.6,18.3 56.5,17.7 58.8,17.7 C60.8,17.7 62.4,18.1 63.6,18.9 L63.6,20.3 C63.6,19.1 63.2,18.1 62.3,17.3 C61.5,16.5 60.4,16.1 59.1,16.1 C57.2,16.1 55.7,17.1 54.8,19 L51.1,17.2 C52.5,14.1 55.4,12.6 59.5,12.6 Z M58.3,26.2 C59.4,26.2 60.4,25.9 61.3,25.2 C62.2,24.5 62.6,23.7 62.6,22.7 C61.7,21.8 60.4,21.3 58.7,21.3 C57.5,21.3 56.5,21.6 55.8,22.1 C55.1,22.7 54.7,23.4 54.7,24.3 C54.7,25.1 55.1,25.8 55.7,26.3 C56.4,25.9 57.3,26.2 58.3,26.2 Z" id="google-o1" fill="#5F6368"></path>
                <path d="M83.1,12.6 C85.3,12.6 87.2,13.4 88.6,14.9 C90,16.4 90.7,18.4 90.7,20.8 C90.7,23.2 90,25.1 88.6,26.7 C87.2,28.2 85.3,29 83.1,29 C80.9,29 79.2,28.2 77.9,26.7 L77.7,26.7 L77.7,28.9 L73.7,28.9 L73.7,5.1 L77.9,5.1 L77.9,14.8 L78.1,14.8 C79.3,13.3 80.9,12.6 83.1,12.6 Z M82.1,25.5 C83.4,25.5 84.5,25 85.3,24.1 C86.1,23.2 86.5,22.1 86.5,20.8 C86.5,19.5 86.1,18.4 85.3,17.5 C84.5,16.6 83.4,16.1 82.1,16.1 C80.8,16.1 79.7,16.6 78.9,17.5 C78,18.4 77.6,19.5 77.6,20.8 C77.6,22.1 78,23.2 78.9,24.1 C79.7,25 80.8,25.5 82.1,25.5 Z" id="google-o2" fill="#5F6368"></path>
                <path d="M13.8,17.2 L13.8,21.4 L22.1,21.4 C21.9,23 21.2,24.2 20.2,25.1 C19,26.2 17.2,27.3 13.8,27.3 C8.9,27.3 5,23.3 5,18.4 C5,13.5 8.9,9.5 13.8,9.5 C16.4,9.5 18.3,10.4 19.8,11.8 L22.8,8.8 C20.6,6.7 17.7,5.3 13.8,5.3 C6.6,5.3 0.5,11.2 0.5,18.4 C0.5,25.6 6.6,31.5 13.8,31.5 C17.6,31.5 20.6,30.2 22.9,27.8 C25.3,25.4 26,22.1 26,19.4 C26,18.6 25.9,17.9 25.8,17.2 L13.8,17.2 Z" id="google-g2" fill="#4285F4"></path>
            </g>
        </g>
        
        <!-- M-Pesa -->
        <g id="mpesa" transform="translate(720, 50)">
            <rect id="mpesa-bg" fill="#FFFFFF" x="0" y="0" width="60" height="80" rx="8"></rect>
            <g id="mpesa-logo" transform="translate(10, 20)">
                <path d="M20,0 C31.046,0 40,8.954 40,20 C40,31.046 31.046,40 20,40 C8.954,40 0,31.046 0,20 C0,8.954 8.954,0 20,0 Z" id="mpesa-circle" fill="#4CAF50"></path>
                <path d="M28,12 L12,12 C10.895,12 10,12.895 10,14 L10,26 C10,27.105 10.895,28 12,28 L28,28 C29.105,28 30,27.105 30,26 L30,14 C30,12.895 29.105,12 28,12 Z M28,26 L12,26 L12,14 L28,14 L28,26 Z" id="mpesa-sim" fill="#FFFFFF"></path>
                <path d="M24,18 L16,18 C15.448,18 15,18.448 15,19 L15,21 C15,21.552 15.448,22 16,22 L24,22 C24.552,22 25,21.552 25,21 L25,19 C25,18.448 24.552,18 24,18 Z" id="mpesa-card" fill="#FFFFFF"></path>
            </g>
        </g>
    </g>
</svg>