<svg xmlns="http://www.w3.org/2000/svg" viewBox="0 0 1000 618">
  <path fill="#FF5F00" d="M380.2,309c0-99.7,46.7-188.3,119.3-245.9c-53-41.7-120-66.8-193.2-66.8C137.2-3.7,0,133.5,0,309s137.2,312.7,306.3,312.7c73.2,0,140.2-25.1,193.2-66.8C426.9,497.3,380.2,408.7,380.2,309z"/>
  <path fill="#EB001B" d="M380.2,309c0,99.7,46.7,188.3,119.3,245.9c72.6-57.6,119.3-146.2,119.3-245.9S572.1,120.7,499.5,63.1C426.9,120.7,380.2,209.3,380.2,309z"/>
  <path fill="#F79E1B" d="M693.7-3.7c-73.2,0-140.2,25.1-193.2,66.8c72.6,57.6,119.3,146.2,119.3,245.9s-46.7,188.3-119.3,245.9c53,41.7,120,66.8,193.2,66.8C862.8,621.7,1000,484.5,1000,309S862.8-3.7,693.7-3.7z"/>
</svg>