<svg width="40" height="40" viewBox="0 0 40 40" fill="none" xmlns="http://www.w3.org/2000/svg">
  <path d="M20 40C31.0457 40 40 31.0457 40 20C40 8.9543 31.0457 0 20 0C8.9543 0 0 8.9543 0 20C0 31.0457 8.9543 40 20 40Z" fill="#0070F3"/>
  <path d="M30 15C30 12.7909 28.2091 11 26 11H14C11.7909 11 10 12.7909 10 15V25C10 27.2091 11.7909 29 14 29H26C28.2091 29 30 27.2091 30 25V15Z" fill="white"/>
  <path d="M20 26C23.3137 26 26 23.3137 26 20C26 16.6863 23.3137 14 20 14C16.6863 14 14 16.6863 14 20C14 23.3137 16.6863 26 20 26Z" fill="#0070F3"/>
</svg>